<?xml version="1.0" standalone="no"?>
<!DOCTYPE svg PUBLIC "-//W3C//DTD SVG 20010904//EN"
 "http://www.w3.org/TR/2001/REC-SVG-20010904/DTD/svg10.dtd">
<svg version="1.0" xmlns="http://www.w3.org/2000/svg"
 width="410.000000pt" height="410.000000pt" viewBox="0 0 410.000000 410.000000"
 preserveAspectRatio="xMidYMid meet">
<metadata>
Created by potrace 1.11, written by Peter Selinger 2001-2013
</metadata>
<g transform="translate(0.000000,410.000000) scale(0.100000,-0.100000)"
fill="#000000" stroke="none">
<path d="M1885 4094 c-16 -2 -70 -9 -120 -15 -114 -14 -323 -67 -441 -112
-616 -236 -1086 -758 -1254 -1391 -53 -198 -64 -291 -64 -526 0 -235 11 -328
64 -526 188 -707 747 -1266 1454 -1454 198 -53 291 -64 526 -64 235 0 328 11
526 64 707 188 1266 747 1454 1454 53 198 64 291 64 526 0 235 -11 328 -64
526 -207 780 -856 1365 -1660 1499 -90 15 -420 28 -485 19z m-895 -1368 l0
-53 -66 -6 c-70 -5 -101 -21 -138 -71 -19 -24 -22 -46 -26 -199 -6 -182 -12
-208 -62 -254 -13 -12 -39 -28 -58 -36 l-34 -15 39 -16 c47 -20 72 -41 93 -81
13 -24 18 -73 22 -247 5 -199 7 -219 26 -244 37 -50 68 -66 138 -71 l66 -6 0
-55 0 -55 -87 5 c-133 8 -199 44 -246 133 -19 36 -22 62 -27 260 -5 197 -7
224 -26 255 -25 43 -59 61 -135 67 l-59 6 0 52 0 53 75 4 c69 3 78 6 108 36
l32 32 5 198 c6 201 9 222 52 272 51 59 131 89 236 90 l72 0 0 -54z m2335 30
c50 -21 91 -60 118 -111 18 -34 21 -65 27 -216 8 -236 25 -264 161 -276 l59
-6 0 -52 0 -52 -60 -6 c-72 -6 -130 -33 -147 -67 -9 -17 -13 -88 -13 -235 0
-122 -5 -227 -11 -250 -7 -25 -29 -58 -58 -86 -55 -56 -121 -79 -223 -79 l-68
0 0 54 0 53 66 6 c70 5 101 21 138 71 19 25 21 45 26 244 4 175 8 223 22 247
21 40 46 61 93 81 l39 16 -34 15 c-19 8 -45 24 -58 36 -50 46 -56 72 -62 254
-5 153 -7 175 -26 199 -37 50 -68 66 -138 71 l-66 6 0 55 0 55 88 -5 c48 -3
105 -13 127 -22z m-1500 -523 c130 -399 234 -718 243 -740 3 -10 -17 -13 -81
-13 l-85 0 -42 125 -42 125 -238 0 -239 0 -20 -67 c-10 -38 -27 -94 -35 -125
l-17 -58 -83 0 -84 0 190 570 190 570 108 0 109 0 126 -387z m891 358 c128
-46 188 -133 188 -276 1 -63 -4 -90 -22 -126 -30 -62 -86 -117 -148 -145 l-50
-24 47 -49 c36 -37 74 -102 158 -270 l112 -222 -91 3 -91 3 -100 210 c-60 127
-112 222 -131 242 -37 38 -81 53 -155 53 l-53 0 0 -255 0 -255 -75 0 -75 0 0
571 0 571 213 -5 c185 -4 220 -7 273 -26z"/>
<path d="M1487 2180 c-48 -154 -90 -286 -93 -295 -5 -13 18 -15 191 -15 154 0
196 3 193 13 -3 6 -47 139 -99 295 -52 155 -96 282 -100 282 -3 0 -45 -126
-92 -280z"/>
<path d="M2380 2299 l0 -192 103 5 c114 6 165 23 213 69 58 56 70 165 25 228
-38 54 -101 76 -228 79 l-113 4 0 -193z"/>
</g>
</svg>
