<?xml version="1.0" standalone="no"?>
<!DOCTYPE svg PUBLIC "-//W3C//DTD SVG 20010904//EN"
 "http://www.w3.org/TR/2001/REC-SVG-20010904/DTD/svg10.dtd">
<svg version="1.0" xmlns="http://www.w3.org/2000/svg"
 width="260.000000pt" height="260.000000pt" viewBox="0 0 260.000000 260.000000"
 preserveAspectRatio="xMidYMid meet">
<metadata>
Created by potrace 1.11, written by Peter Selinger 2001-2013
</metadata>
<g transform="translate(0.000000,260.000000) scale(0.100000,-0.100000)"
fill="#000000" stroke="none">
<path d="M1209 2481 c-38 -38 -69 -78 -69 -88 0 -10 227 -245 535 -553 l535
-535 -535 -535 c-425 -425 -535 -540 -535 -560 0 -31 125 -160 155 -160 25 0
1255 1227 1255 1252 0 22 -1225 1242 -1252 1246 -15 3 -40 -16 -89 -67z"/>
<path d="M787 2052 c-37 -37 -67 -76 -67 -87 0 -13 118 -137 322 -342 l323
-323 -240 -240 c-132 -132 -244 -240 -250 -240 -6 0 -117 107 -248 238 l-237
237 78 78 77 77 140 -140 c80 -80 148 -140 158 -140 11 0 50 30 88 67 50 48
69 73 69 92 0 37 -423 461 -460 461 -36 0 -490 -454 -490 -490 0 -20 86 -112
403 -428 253 -253 410 -402 422 -402 25 0 813 786 822 819 5 20 -45 74 -398
427 -267 267 -411 404 -424 404 -12 0 -49 -28 -88 -68z"/>
</g>
</svg>
